<svg width="528" height="711" viewBox="0 0 528 711" fill="none" xmlns="http://www.w3.org/2000/svg">
<path fill-rule="evenodd" clip-rule="evenodd" d="M326 0.5C326 0.5 291.5 88 343.5 165.5C375.278 209.924 398.644 232.688 428.055 261.341C443.994 276.869 461.709 294.127 483.5 317.5C508.207 344 526.133 384.5 527.5 429.5C528.727 469.879 525.142 490.472 502.5 527C465 587.5 410.579 620.381 345 658.5C300.554 684.335 223 711 223 711C223 711 234 637 214 586C192.341 530.771 165.5 503.5 122.5 465C115.907 459.097 109.471 453.451 103.22 447.967C61.4693 411.342 27.9606 381.947 11 331.5C1.41808 303 -3.11333 270 3.49998 239C10.1133 208 28.6879 182.893 53 152.5C89 111.5 127.074 85.841 182.5 55.5C235.144 26.6819 326 0.5 326 0.5ZM220.723 171.58L220.724 171.58L221.5 172L222.019 172.28L222.019 172.281L222.02 172.281C240.567 182.306 270.654 198.57 287 206C291.5 207 294.5 204.5 293 199C280 175 270.857 154.23 267 143.5C259.73 123.276 258 114.5 255 93.5C254.571 90.5 252.5 89 249 90C240.366 94.7968 234.303 98.0193 228.602 101.05L228.601 101.05L228.6 101.051C222.417 104.338 216.657 107.4 208.5 112C193.331 120.555 173 132.5 170 134.5C168 135.833 167 139 168.5 141.5C171.458 144.951 202.132 161.531 220.723 171.58ZM219.751 305.581L219.788 305.6L219.916 305.664C223.526 307.483 227.061 309.264 230.5 311C312.359 352.327 431.357 386.089 447 390C453 391.5 457 390 453 383C446.783 372.121 441.963 364.413 433.5 353.5C425.794 343.563 414.934 333.68 408.469 327.796C407.756 327.147 407.096 326.546 406.5 326C349.5 301.5 320.225 288.906 263 263C217.592 242.444 170.263 214.445 140.872 197.058C130.616 190.991 122.544 186.216 117.5 183.5C112.5 180.808 109.72 182.087 108 183.5C95.6759 193.626 88 205 80 217.5C78.4 220 78 223.5 79.5 225C104.204 247.373 169.316 280.174 219.751 305.581ZM67 294C59.5 296 75.5 331 85.5 346.5C143.5 386 231 424.5 231 424.5C231 424.5 357.5 481.5 433.5 500.5C438.969 501.867 442 501.5 445 499C454.5 489 462.5 464.5 462.5 464.5C463.5 461.5 463 457.5 455 456.5C437 453.5 355 424.5 252.5 384.5C190.426 359.011 140.222 331.543 107.497 313.639C85.6577 301.69 71.6029 294 67 294ZM267.5 560.5C258.208 536.938 254.5 529 238.5 502.5C235.5 498.5 239 494.5 243 496C254.238 500.214 264.324 504.444 274.801 508.838L274.801 508.838L274.803 508.839C286.233 513.632 298.13 518.621 312.5 524C332.846 531.616 349.108 537.02 365.839 542.58L365.843 542.581L365.846 542.582L365.848 542.582C372.559 544.812 379.345 547.067 386.5 549.5C391 551.03 392.286 556.5 390 558.5C374 572.5 340 592.5 340 592.5C340 592.5 308 613 293.5 618C288 619 282.641 618 282 613C279.5 593.5 275.338 580.375 267.5 560.5Z" fill="url(#paint0_linear_2_22)"/>
<defs>
<linearGradient id="paint0_linear_2_22" x1="264.043" y1="0.5" x2="264.043" y2="711" gradientUnits="userSpaceOnUse">
<stop offset="0.055" stop-color="#EC6EAD"/>
<stop offset="0.35" stop-color="#00A9DB"/>
<stop offset="0.64" stop-color="#01A663"/>
<stop offset="0.95" stop-color="#EFE604"/>
</linearGradient>
</defs>
</svg>
